<?xml version="1.0" encoding="utf-8"?>
<!-- Generator: Adobe Illustrator 21.0.0, SVG Export Plug-In . SVG Version: 6.00 Build 0)  -->
<svg version="1.1" id="Livello_1" xmlns="http://www.w3.org/2000/svg" xmlns:xlink="http://www.w3.org/1999/xlink" x="0px" y="0px"
	 viewBox="0 0 772 250" style="enable-background:new 0 0 772 250;" xml:space="preserve">
<style type="text/css">
	.st0{fill:#3C3C3B;}
	.st1{fill:none;}
	.st2{fill:#FD0000;}
	.st3{fill:#FFFFFF;}
	.st4{fill:#FFBB26;}
</style>
<rect y="0" class="st0" width="772" height="250"/>
<path class="st1" d="M638.8,118.7l1.6-1.1C639.8,117.6,639.3,118.1,638.8,118.7z"/>
<path class="st2" d="M587.6,117.8l-3.1-2.4C585.3,116.4,586.3,117.2,587.6,117.8z"/>
<path class="st1" d="M365.9,203.1l1.7-1.2C367.1,201.9,366.6,202.4,365.9,203.1z"/>
<path class="st2" d="M309.7,202.1l-3.4-2.7C307.2,200.5,308.4,201.5,309.7,202.1z"/>
<g>
	<path class="st3" d="M77.1,130l-2.4,6c-0.2,0.4-0.5,0.8-1.1,0.8c-0.6,0-1.1-0.5-1.1-1.1c0-0.1,0-0.4,0.1-0.5l8.1-20.4
		c0.2-0.4,0.5-0.8,1.1-0.8c0.6,0,0.9,0.4,1.1,0.8l8.1,20.4c0.1,0.2,0.1,0.4,0.1,0.5c0,0.6-0.5,1.1-1.2,1.1c-0.6,0-0.9-0.3-1.1-0.8
		l-2.4-6.1H77.1z M81.7,117.8l-3.9,10.1h7.8L81.7,117.8z"/>
	<path class="st3" d="M96.7,123.5v12.2c0,0.6-0.5,1.1-1.1,1.1c-0.6,0-1.1-0.5-1.1-1.1v-12.2h-1.1c-0.6,0-1-0.4-1-1s0.4-1,1-1h1.1
		v-1.9c0-3,1.7-5.7,5.7-5.7c0.6,0,1,0.4,1,1s-0.4,1-1,1c-2.6,0-3.6,1.6-3.6,3.7v1.9h6.7v-1.9c0-3,1.7-5.7,5.7-5.7
		c1.5,0,2.9,0.4,3.5,0.7c0.4,0.2,0.6,0.5,0.6,0.9c0,0.6-0.4,1-1,1c-0.2,0-0.4-0.1-0.7-0.2c-0.7-0.3-1.3-0.5-2.4-0.5
		c-2.6,0-3.6,1.6-3.6,3.7v1.9h7.5c0.6,0,1.1,0.5,1.1,1.1v13.1c0,0.6-0.5,1.1-1.1,1.1s-1.1-0.5-1.1-1.1v-12.2h-6.4v12.2
		c0,0.6-0.5,1.1-1.1,1.1s-1.1-0.5-1.1-1.1v-12.2H96.7z"/>
	<path class="st3" d="M120.5,114.1v18.8c0,1.3,0.4,1.9,1.3,1.9c0.5,0,1,0.4,1,1s-0.5,1-1,1c-2.2,0-3.4-1.3-3.4-3.9v-18.8
		c0-0.6,0.5-1.1,1.1-1.1C120,113,120.5,113.5,120.5,114.1z"/>
	<path class="st3" d="M125.3,116.9c0-1,0.5-1.3,1.3-1.3s1.3,0.4,1.3,1.3c0,0.8-0.5,1.3-1.3,1.3S125.3,117.7,125.3,116.9z
		 M127.7,135.7c0,0.6-0.5,1.1-1.1,1.1s-1.1-0.5-1.1-1.1v-13.4c0-0.6,0.5-1.1,1.1-1.1s1.1,0.5,1.1,1.1V135.7z"/>
	<path class="st3" d="M133.6,124.7c-0.3,0.4-0.6,0.5-0.9,0.5c-0.5,0-1-0.4-1-1c0-0.2,0.1-0.4,0.2-0.6c0.9-1.5,2.7-2.6,5.5-2.6
		c3.8,0,5.9,2.2,5.9,5.6v9.1c0,0.6-0.5,1-1,1s-1-0.5-1-1v-1.2c-0.8,1.6-2.7,2.4-4.7,2.4c-3.5,0-5.7-1.7-5.7-4.7
		c0-2.9,2.2-4.7,5.8-4.7h4.7v-0.9c0-2.2-1.5-3.6-3.9-3.6C135.7,123.1,134.6,123.6,133.6,124.7z M141.3,130.8v-1.4h-4.7
		c-2.1,0-3.6,0.9-3.6,2.8c0,1.7,1.2,2.8,3.8,2.8C139.1,135,141.3,133.6,141.3,130.8z"/>
	<path class="st3" d="M148.2,118.1c0-0.6,0.5-1.1,1.1-1.1c0.6,0,1.1,0.5,1.1,1.1v3.5h2.1c0.6,0,1,0.4,1,1s-0.4,1-1,1h-2.1v9.1
		c0,1.4,0.8,2.2,1.9,2.2c0.6,0,1,0.4,1,1s-0.5,1-1,1c-2.6,0-4-1.7-4-4.2v-9.1h-1.3c-0.6,0-1-0.4-1-1s0.4-1,1-1h1.3V118.1z"/>
	<path class="st3" d="M162.4,121.1c5.3,0,6.3,4.2,6.3,6.4c0,1,0,2.1-1.3,2.1h-9.6c0,3.3,1.9,5.4,5,5.4c1.9,0,3-0.7,4-1.4
		c0.2-0.1,0.3-0.2,0.6-0.2c0.5,0,1,0.4,1,1c0,0.4-0.2,0.6-0.4,0.8c-0.5,0.5-2.2,1.8-5.1,1.8c-4.4,0-7.1-2.4-7.1-8
		C155.6,123.9,158.1,121.1,162.4,121.1z M162.4,123c-2.9,0-4.5,1.8-4.7,4.8h8.9C166.6,125.4,165.8,123,162.4,123z"/>
	<path class="st3" d="M173.7,125.1c0,3.5,8.7,2.2,8.7,7.5c0,3-2.5,4.4-5.6,4.4c-2.7,0-4.8-1.3-5.6-2.4c-0.2-0.2-0.2-0.4-0.2-0.6
		c0-0.5,0.4-1,1-1c0.2,0,0.5,0.1,0.7,0.3c1,1,2.3,1.6,4.2,1.6c1.9,0,3.5-0.6,3.5-2.3c0-3.4-8.7-2-8.7-7.5c0-2.7,2.2-4,5-4
		c2.2,0,4,0.8,5,2.1c0.1,0.1,0.2,0.3,0.2,0.6c0,0.5-0.4,1-1,1c-0.2,0-0.4,0-0.7-0.3c-0.9-0.9-1.9-1.4-3.6-1.4
		C175.1,123.1,173.7,123.6,173.7,125.1z"/>
	<path class="st3" d="M195.5,124.7c-0.3,0.4-0.6,0.5-0.9,0.5c-0.5,0-1-0.4-1-1c0-0.2,0.1-0.4,0.2-0.6c0.9-1.5,2.7-2.6,5.5-2.6
		c3.8,0,5.9,2.2,5.9,5.6v9.1c0,0.6-0.5,1-1,1s-1-0.5-1-1v-1.2c-0.8,1.6-2.7,2.4-4.7,2.4c-3.5,0-5.7-1.7-5.7-4.7
		c0-2.9,2.2-4.7,5.8-4.7h4.7v-0.9c0-2.2-1.5-3.6-3.9-3.6C197.5,123.1,196.5,123.6,195.5,124.7z M203.2,130.8v-1.4h-4.7
		c-2.1,0-3.6,0.9-3.6,2.8c0,1.7,1.2,2.8,3.8,2.8C201,135,203.2,133.6,203.2,130.8z"/>
	<path class="st3" d="M221.8,126.9v8.8c0,0.6-0.5,1.1-1.1,1.1c-0.6,0-1.1-0.5-1.1-1.1v-8.4c0-2.6-0.8-4.4-4-4.4
		c-3.3,0-4.4,2-4.4,4.6v8.2c0,0.6-0.5,1.1-1.1,1.1c-0.6,0-1.1-0.5-1.1-1.1v-13.4c0-0.6,0.5-1.1,1.1-1.1c0.6,0,1.1,0.5,1.1,1.1v1.1
		c0.6-1.3,2.2-2.3,4.4-2.3C220.8,121.1,221.8,124.1,221.8,126.9z"/>
	<path class="st3" d="M235.9,123.2v-9.1c0-0.6,0.5-1.1,1.1-1.1s1.1,0.5,1.1,1.1v16.4c0,4.4-2.7,6.5-6.5,6.5c-4.3,0-6.8-2.5-6.8-8
		c0-5.4,2.4-7.9,6.6-7.9C233.5,121.1,235.1,122.2,235.9,123.2z M235.9,125.9c0,0-1.3-2.9-4.4-2.9c-3,0-4.7,1.9-4.7,6
		c0,4.1,1.6,6,4.7,6c2.5,0,4.4-1.5,4.4-4.6V125.9z"/>
	<path class="st3" d="M252.8,135.7c0,0.6-0.5,1.1-1.1,1.1c-0.6,0-1.1-0.5-1.1-1.1v-20.2c0-0.6,0.5-1.1,1.1-1.1h6.6
		c3.5,0,6.3,2,6.3,6.4c0,4.3-2.7,6.5-6.3,6.5h-5.4V135.7z M252.8,125.2h5.1c2.7,0,4.4-1.6,4.4-4.4c0-2.9-1.7-4.4-4.4-4.4h-5.1V125.2
		z"/>
	<path class="st3" d="M269.1,124.7c-0.3,0.4-0.6,0.5-0.9,0.5c-0.5,0-1-0.4-1-1c0-0.2,0.1-0.4,0.2-0.6c0.9-1.5,2.7-2.6,5.5-2.6
		c3.8,0,5.9,2.2,5.9,5.6v9.1c0,0.6-0.5,1-1,1s-1-0.5-1-1v-1.2c-0.8,1.6-2.7,2.4-4.7,2.4c-3.5,0-5.7-1.7-5.7-4.7
		c0-2.9,2.2-4.7,5.8-4.7h4.7v-0.9c0-2.2-1.5-3.6-3.9-3.6C271.2,123.1,270.1,123.6,269.1,124.7z M276.8,130.8v-1.4h-4.7
		c-2.1,0-3.6,0.9-3.6,2.8c0,1.7,1.2,2.8,3.8,2.8C274.6,135,276.8,133.6,276.8,130.8z"/>
	<path class="st3" d="M284.9,123.8c0.7-1.5,2.3-2.6,4.6-2.6c0.6,0,1,0.5,1,1s-0.5,1-1,1c-3,0-4.6,2.1-4.6,5.1v7.4
		c0,0.6-0.5,1.1-1.1,1.1c-0.6,0-1.1-0.5-1.1-1.1v-13.4c0-0.6,0.5-1.1,1.1-1.1c0.6,0,1.1,0.5,1.1,1.1V123.8z"/>
	<path class="st3" d="M294.5,118.1c0-0.6,0.5-1.1,1.1-1.1c0.6,0,1.1,0.5,1.1,1.1v3.5h2.1c0.6,0,1,0.4,1,1s-0.4,1-1,1h-2.1v9.1
		c0,1.4,0.8,2.2,1.9,2.2c0.6,0,1,0.4,1,1s-0.5,1-1,1c-2.6,0-4-1.7-4-4.2v-9.1h-1.3c-0.6,0-1-0.4-1-1s0.4-1,1-1h1.3V118.1z"/>
	<path class="st3" d="M315.5,126.9v8.8c0,0.6-0.5,1.1-1.1,1.1c-0.6,0-1.1-0.5-1.1-1.1v-8.4c0-2.6-0.8-4.4-4-4.4
		c-3.3,0-4.4,2-4.4,4.6v8.2c0,0.6-0.5,1.1-1.1,1.1c-0.6,0-1.1-0.5-1.1-1.1v-13.4c0-0.6,0.5-1.1,1.1-1.1c0.6,0,1.1,0.5,1.1,1.1v1.1
		c0.6-1.3,2.2-2.3,4.4-2.3C314.5,121.1,315.5,124.1,315.5,126.9z"/>
	<path class="st3" d="M325.2,121.1c5.3,0,6.3,4.2,6.3,6.4c0,1,0,2.1-1.3,2.1h-9.6c0,3.3,1.9,5.4,5,5.4c1.9,0,3-0.7,4-1.4
		c0.2-0.1,0.3-0.2,0.6-0.2c0.5,0,1,0.4,1,1c0,0.4-0.2,0.6-0.4,0.8c-0.5,0.5-2.2,1.8-5.1,1.8c-4.4,0-7.1-2.4-7.1-8
		C318.4,123.9,320.9,121.1,325.2,121.1z M325.2,123c-2.9,0-4.5,1.8-4.7,4.8h8.9C329.4,125.4,328.6,123,325.2,123z"/>
	<path class="st3" d="M336.9,123.8c0.7-1.5,2.3-2.6,4.6-2.6c0.6,0,1,0.5,1,1s-0.5,1-1,1c-3,0-4.6,2.1-4.6,5.1v7.4
		c0,0.6-0.5,1.1-1.1,1.1c-0.6,0-1.1-0.5-1.1-1.1v-13.4c0-0.6,0.5-1.1,1.1-1.1c0.6,0,1.1,0.5,1.1,1.1V123.8z"/>
	<path class="st3" d="M346.6,125.1c0,3.5,8.7,2.2,8.7,7.5c0,3-2.5,4.4-5.6,4.4c-2.7,0-4.8-1.3-5.6-2.4c-0.2-0.2-0.2-0.4-0.2-0.6
		c0-0.5,0.4-1,1-1c0.2,0,0.5,0.1,0.7,0.3c1,1,2.3,1.6,4.2,1.6c1.9,0,3.5-0.6,3.5-2.3c0-3.4-8.7-2-8.7-7.5c0-2.7,2.2-4,5-4
		c2.2,0,4,0.8,5,2.1c0.1,0.1,0.2,0.3,0.2,0.6c0,0.5-0.4,1-1,1c-0.2,0-0.4,0-0.7-0.3c-0.9-0.9-1.9-1.4-3.6-1.4
		C348,123.1,346.6,123.6,346.6,125.1z"/>
	<path class="st3" d="M366.2,123.5c-0.6,0-1-0.4-1-1s0.4-1,1-1h1.1v-1.9c0-3,1.7-5.7,5.7-5.7c0.6,0,1,0.4,1,1s-0.4,1-1,1
		c-2.6,0-3.6,1.6-3.6,3.7v1.9h3c0.6,0,1,0.4,1,1s-0.4,1-1,1h-3v12.2c0,0.6-0.5,1.1-1.1,1.1c-0.6,0-1.1-0.5-1.1-1.1v-12.2H366.2z"/>
	<path class="st3" d="M388.9,129c0,5.4-2.6,8-6.9,8c-4.3,0-6.9-2.5-6.9-8c0-5.4,2.7-7.9,6.9-7.9C386.3,121.1,388.9,123.6,388.9,129z
		 M386.8,129c0-4.2-1.7-6-4.8-6c-3,0-4.8,1.8-4.8,6c0,4.2,1.7,6,4.8,6C385,135,386.8,133.2,386.8,129z"/>
	<path class="st3" d="M394.3,123.8c0.7-1.5,2.3-2.6,4.6-2.6c0.6,0,1,0.5,1,1s-0.5,1-1,1c-3,0-4.6,2.1-4.6,5.1v7.4
		c0,0.6-0.5,1.1-1.1,1.1c-0.6,0-1.1-0.5-1.1-1.1v-13.4c0-0.6,0.5-1.1,1.1-1.1c0.6,0,1.1,0.5,1.1,1.1V123.8z"/>
	<path class="st3" d="M409.6,125.4c0-7.8,3.9-11.6,10.3-11.6c3.1,0,5.9,1.4,7.4,3.5c0.2,0.2,0.2,0.5,0.2,0.7c0,0.6-0.5,1.1-1.1,1.1
		c-0.3,0-0.6-0.1-0.9-0.4c-1.1-1.6-3.3-2.8-5.7-2.8c-5.1,0-8,3.1-8,9.5c0,6.9,2.9,9.5,8,9.5c2.2,0,4.5-0.9,5.7-2.7
		c0.2-0.3,0.6-0.4,0.9-0.4c0.6,0,1.1,0.5,1.1,1.1c0,0.3-0.1,0.4-0.2,0.6c-1.5,2.1-4.4,3.5-7.5,3.5
		C413.5,137,409.6,133.5,409.6,125.4z"/>
	<path class="st3" d="M433.8,135.7c0,0.6-0.5,1.1-1.1,1.1c-0.6,0-1.1-0.5-1.1-1.1v-20.2c0-0.6,0.5-1.1,1.1-1.1h6.6
		c3.5,0,6.3,2,6.3,6.4c0,4.3-2.7,6.5-6.3,6.5h-5.4V135.7z M433.8,125.2h5.1c2.7,0,4.4-1.6,4.4-4.4c0-2.9-1.7-4.4-4.4-4.4h-5.1V125.2
		z"/>
</g>
<g>
	<path class="st1" d="M638.7,117.2l1.5-1.1C639.8,116.1,639.4,116.5,638.7,117.2z"/>
	<path class="st2" d="M587.5,116.3l-3.1-2.5C585.3,114.8,586.4,115.7,587.5,116.3z"/>
	<path class="st4" d="M539.3,127.9c0,0.5,0,1.1,0.1,1.6c0.9-0.5,1.6-1.1,2.5-1.8C541,127.8,540.1,127.8,539.3,127.9z"/>
	<path class="st4" d="M549.5,125.8c0.4,0,0.5,0,0.9,0c2.1-0.1,4.2-0.2,6.3-0.3c6.2-0.1,12.4-0.1,18.6-0.2c0.5,0,0.8,0,0.8-0.3
		c2-2.8,4-5.6,5.9-8.4c1.3-2,2.6-4,3.9-6c1-1.6,2-3.3,2.9-4.9c0-0.1,0.1-0.2,0.1-0.4c-0.1,0-0.2,0-0.3,0
		c-14.2,6.5-27.1,13.3-39.1,20.4C549.4,125.7,549.4,125.8,549.5,125.8z"/>
	<path class="st4" d="M627.4,117.7c0.4,0,0.6,0,0.7,0c0.8,0,1.3-0.1,1.6-0.5c1.4-1.9,8.5-8.9-2.5-6.2c-3.4,1.1-12.6,4-10.7,5.6
		C618.1,118.1,624.8,117.6,627.4,117.7z"/>
	<path class="st4" d="M627.4,119.4c-0.2,0-0.2,0-0.3,0c-0.1,0-0.2,0-0.4,0c-4.1,0.2-7.7,0.8-11.2,1.8c-2.9,0.8-5.5,1.8-7,3.2
		c-2.2,2,0.9,4.6,5.8,4.9c0.2,0,0.5-0.1,0.7-0.2c3.5-2.7,7.5-5.9,11.1-8.6C626.6,120.1,627,119.8,627.4,119.4z"/>
	<path class="st4" d="M703.3,114.5c0.6-0.6,1.3-1.3,2.1-2c-0.1,0-0.2,0-0.4,0.1c-6.2,1.2-12,2.6-17.4,4.4c-2.4,0.7-4.7,1.4-6.7,2.4
		c-1.2,0.5-2.2,1.1-2.6,1.9c-0.4,0.5-0.2,1.1,0.6,1.5l0.2,0.1c0.7,0.2,1.4,0.4,2.1,0.5c3.6,0.6,7.5,0.8,11.3,0.8
		c0.6,0,0.8-0.1,0.9-0.3C696.8,120.8,699.8,117.6,703.3,114.5z"/>
	<path class="st4" d="M724.7,122.8c-2.5,0.4-4.8,1-7.5,1.3c-6.4,0.8-13,1.5-19.8,1.8c-1,0-1.4,0.2-1.9,0.5
		c-3.7,3.3-6.7,6.9-10.3,10.3c-1.1,1.1-2.4,2.3-3.7,3.3c0,0.1-0.1,0.1-0.1,0.2c-0.2,0-0.3,0.2-0.5,0.2c0-0.1-0.2-0.2-0.1-0.3
		c0,0,0-0.1,0.1-0.1c-0.2,0.1-0.3,0.2-0.4,0.2c0-0.1-0.1-0.2-0.1-0.3c0.4-0.8,0.8-1.6,1.6-2.4c2.2-2.9,4.6-5.9,7-8.7
		c0.8-1,1.8-1.8,2.6-2.8c0,0,0,0,0.1-0.1l-2.8-0.1c-2.8-0.1-5.5-0.3-8.1-0.7c-1.1-0.2-1.9-0.4-2.8-0.6c-0.6-0.2-1.3-0.4-1.8-0.6
		c-2.3-0.9-2.9-2.2-1.7-3.5c0.9-0.9,2.2-1.8,3.9-2.5c2.2-1,4.7-1.7,7.2-2.5c3.4-1.2,7.2-2,11.1-3c2.6-0.6,5.5-1.1,8.3-1.8
		c1.1-0.2,1.6-0.4,2.3-0.8c0.3-0.3,0.8-0.4,1.3-0.6c0.7-0.2,1.5-0.2,1.9,0.1c0.2,0,0.4,0.1,0.5,0.2c1-0.1,1.8-0.3,2.9-0.4l6.5-0.6
		c0.5,0,1.1,0.1,1.6,0.2c0.2,0,0.4,0.1,0.4,0.2c0.1,0,0.1,0,0.1,0c0.4,0,0.5,0.2,0.2,0.3c-0.4,0.2-0.9,0.4-1.4,0.4
		c-3.6,0.5-6.9,1-10.4,1.7c-0.4,0.1-0.8,0.2-1,0.5c-2.1,2.3-4.3,4.6-6.7,6.9c-1.8,1.7-3.5,3.5-5.1,5.3c1.3-0.1,2.6-0.1,4-0.3
		c4.5-0.4,9.1-0.8,13.5-1.4c3.1-0.4,6-1,8.9-1.5c8.5-1.6,16.3-3.6,23.6-6.1c2.2-0.7,4.3-1.6,6.3-2.5c-0.3-3.3-0.8-6.6-1.5-9.8
		c-4.8-0.4-9.8-0.4-14.7-0.4c-3.7,0-7.3,0.4-11,0.6c-8.6,0.4-16.5,1.6-24.6,2.8c-8.6,1.3-17,3-24.7,5.1c-3.8,1-7.2,2.3-10.5,3.5
		c-3,1.1-5.7,2.3-8.1,3.7l-1.1,0.8c-0.4,0.3-0.7,0.4-1.2,0.4c-0.4,0-0.7-0.1-1-0.3c-0.4-0.1-0.7-0.3-0.7-0.5
		c0.1-0.3,0.2-0.6,0.5-0.9c0.8-0.6,1.9-1.3,3-1.9c4.1-2.1,9.1-3.8,14.2-5.4c3.2-1,6.6-1.9,10.1-2.6c4.8-1.1,9.6-2.1,14.6-2.9
		l12.7-1.8c5.6-0.8,11.3-1.3,17.1-1.7c5.7-0.4,11.4-0.6,17.1-0.5c2.7,0,5.3,0.1,7.8,0.3c-10.5-48.6-53.7-85-105.4-85
		c-59.5,0-107.8,48.3-107.8,107.8c0,1,0,1.9,0,2.9c1.6-0.1,3.2-0.2,4.8-0.3c0.2,0,0.6-0.1,0.7-0.2c2.9-1.8,5.8-3.5,8.7-5.2
		c3.2-1.8,6.7-3.6,10-5.3c4.1-2.1,8.1-4.2,12.2-6.4c1.2-0.6,2.6-1.2,4.1-1.8c3.2-1.5,6.3-3,9.5-4.5c0.3-0.1,0.4-0.2,0.7-0.3
		c1-0.3,1.9-0.5,2.9-0.4c1.1,0.2,1.5,0.6,1.4,1.1c0,0.5-0.1,0.9-0.4,1.3c-0.7,1.6-1.6,3.2-2.6,4.7c-3.3,5.2-6.9,10.3-10.3,15.4
		c-0.2,0.3-0.4,0.6-0.6,0.9c0.9,0,1.7,0.1,2.6,0.1c2.9,0.1,5.8,0.2,8.9,0.3c0.2,0,0.4,0.1,0.4,0.1c-0.1,0-0.4,0.1-0.5,0.1
		c-3.9,0.1-7.5,0.2-11.3,0.3c-0.6,0-0.9,0.1-0.9,0.3c-1.9,2.8-3.8,5.6-5.7,8.4c-2.2,3.3-4.5,6.5-6.7,9.8c-1.4,2.2-2.6,4.5-4,6.8
		c-0.4,0.6-0.8,1.2-1.1,1.8c-0.2,0.2-0.6,0.4-0.9,0.5c-0.3-0.2-0.6-0.3-0.6-0.5c0-0.8,0.1-1.5,0.4-2.3c0.6-2.9,2-5.7,3.5-8.6
		c2.9-5,6.7-9.9,10.1-15c0.2-0.4,0.5-0.8,0.7-1.2c-1.9,0.1-3.7,0.2-5.6,0.2c-4.5,0.2-8.9,0.4-13.4,0.6c-3.2,0.1-6.2,0.3-9.3,0.5
		c-0.4,0-0.7,0.1-0.9,0.3c-1.5,1.1-2.8,2.1-4.3,3.1c-0.7,0.5-1.4,0.9-2.1,1.4c4.5,55.4,50.9,99,107.4,99
		c59.5,0,107.8-48.3,107.8-107.8c0-2.9-0.1-5.8-0.3-8.7c-3.6,1.4-7.4,2.7-11.6,3.8C737.1,120.3,731.1,121.7,724.7,122.8z
		 M648.4,129.4c-1.8,0-3.4-0.3-5-0.7c-1.2-0.3-2.4-0.6-3.6-1c-0.4-0.1-0.6-0.1-1,0c-6.9,2.1-14.5,3.1-22.9,3c-0.2,0-0.5,0.1-0.7,0.2
		c-0.8,0.3-1.4,0.6-2.2,0.8c-0.5,0.1-1.1,0.2-1.6,0c-0.6-0.2-0.4-0.4,0-0.7c0.3-0.2,0.6-0.3,0.9-0.5c-0.2,0-0.4-0.1-0.7-0.1
		c-2.3-0.3-4.4-0.8-6-1.7c-2.9-1.6-3-3.3-1.3-5.1c1.7-1.7,4.6-3,8-4c1.4-0.4,2.7-0.7,4-1.1c-0.2,0-0.4-0.1-0.6-0.2
		c-2.7-0.7-3.8-1.9-3-3.2c0.6-0.9,1.4-1.7,2.8-2.3c2.4-1.1,4.9-2.3,7.9-3.1c2.7-0.7,5.4-1.2,8.7-1c9.3,1.1,3.7,5.9,1.6,8.3
		c-2,2.4-5.2,4.6-8.2,6.8c-2,1.5-5,3.3-7.2,4.8c-0.1,0.1-0.3,0.2-0.5,0.3c6.7-0.2,13.2-1.5,19-2.7c-0.3-0.2-0.4-0.3-0.6-0.4
		c-1.3-0.7-2-1.5-2.6-2.4c-0.2-0.3-0.1-0.6,0.3-0.9c0.5-0.3,1-0.4,1.8-0.4c0.7,0,1.1,0.3,1.5,0.5c0.7,0.9,1.7,1.7,3.2,2.4
		c0.9-0.4,2-0.7,3.1-1c1.5-0.5,2.9-1.1,4.4-1.6c0.2-0.1,0.6-0.1,0.8-0.1c-0.1,0.1-0.1,0.2-0.2,0.4c-1.5,1.2-3.8,2.3-6.1,3.3
		c-0.1,0-0.2,0.1-0.4,0.2c0.7,0.3,1.5,0.6,2.2,0.9c1.4,0.5,2.8,1.1,4.2,1.6c0.1,0,0.2,0.1,0.3,0.2
		C648.8,129.3,648.6,129.4,648.4,129.4z"/>
	<path class="st3" d="M545.9,127.8c0.3-0.1,0.6-0.3,0.9-0.3c3.1-0.2,6.2-0.4,9.3-0.5c4.5-0.2,8.9-0.4,13.4-0.6
		c1.9,0,3.7-0.1,5.6-0.2c-0.2,0.4-0.6,0.8-0.7,1.2c-3.4,5.1-7.2,9.9-10.1,15c-1.5,2.8-2.9,5.7-3.5,8.6c-0.3,0.7-0.4,1.5-0.4,2.3
		c0,0.2,0.4,0.4,0.6,0.5c0.3-0.2,0.7-0.4,0.9-0.5c0.4-0.6,0.7-1.2,1.1-1.8c1.4-2.3,2.6-4.6,4-6.8c2.2-3.2,4.5-6.5,6.7-9.8
		c1.9-2.8,3.8-5.6,5.7-8.4c0.1-0.2,0.4-0.3,0.9-0.3c3.8-0.1,7.5-0.2,11.3-0.3c0.2,0,0.4-0.1,0.5-0.1c-0.1,0-0.3-0.1-0.4-0.1
		c-3.1-0.1-6-0.2-8.9-0.3c-0.9,0-1.7-0.1-2.6-0.1c0.2-0.3,0.4-0.6,0.6-0.9c3.4-5.1,7-10.2,10.3-15.4c1-1.5,1.8-3.2,2.6-4.7
		c0.3-0.4,0.4-0.9,0.4-1.3c0.2-0.5-0.2-0.9-1.4-1.1c-1-0.2-1.9,0.1-2.9,0.4c-0.3,0.1-0.4,0.2-0.7,0.3c-3.2,1.5-6.4,3-9.5,4.5
		c-1.4,0.6-2.9,1.2-4.1,1.8c-4.1,2.2-8,4.2-12.2,6.4c-3.3,1.8-6.8,3.5-10,5.3c-2.9,1.7-5.7,3.5-8.7,5.2c-0.2,0.1-0.5,0.2-0.7,0.2
		c-1.6,0.1-3.2,0.2-4.8,0.3c0,0.5,0,1.1,0.1,1.6c0.8-0.1,1.7-0.1,2.6-0.2c-0.9,0.6-1.7,1.2-2.5,1.8c0.1,0.9,0.1,1.9,0.2,2.8
		c0.7-0.5,1.3-1,2.1-1.4C543.1,129.9,544.5,128.9,545.9,127.8z M588.5,105.2c0.1,0,0.2,0,0.3,0c0,0.1-0.1,0.2-0.1,0.4
		c-1,1.7-1.9,3.3-2.9,4.9c-1.2,2-2.6,4-3.9,6c-1.9,2.8-3.9,5.6-5.9,8.4c0,0.2-0.3,0.3-0.8,0.3c-6.2,0.1-12.4,0.2-18.6,0.2
		c-2.1,0.1-4.2,0.2-6.3,0.3c-0.4,0-0.5,0-0.9,0c-0.1,0-0.1,0-0.1-0.1C561.4,118.6,574.3,111.7,588.5,105.2z"/>
	<path class="st3" d="M648.7,129.1c-1.4-0.5-2.8-1-4.2-1.6c-0.7-0.3-1.5-0.6-2.2-0.9c0.2-0.1,0.2-0.1,0.4-0.2c2.3-1,4.6-2,6.1-3.3
		c0.1-0.1,0.1-0.2,0.2-0.4c-0.2,0-0.6,0.1-0.8,0.1c-1.5,0.5-2.9,1.1-4.4,1.6c-1.1,0.3-2.2,0.7-3.1,1c-1.5-0.7-2.5-1.5-3.2-2.4
		c-0.4-0.3-0.8-0.5-1.5-0.5c-0.9-0.1-1.4,0.1-1.8,0.4c-0.4,0.3-0.5,0.5-0.3,0.9c0.6,0.9,1.2,1.7,2.6,2.4c0.2,0.1,0.3,0.2,0.6,0.4
		c-5.8,1.2-12.3,2.6-19,2.7c0.2-0.2,0.4-0.3,0.5-0.3c2.2-1.5,5.2-3.3,7.2-4.8c3-2.2,6.2-4.4,8.2-6.8c2.2-2.5,7.7-7.2-1.6-8.3
		c-3.2-0.3-6,0.3-8.7,1c-3,0.8-5.5,1.9-7.9,3.1c-1.4,0.6-2.2,1.4-2.8,2.3c-0.9,1.3,0.3,2.5,3,3.2c0.2,0.1,0.4,0.1,0.6,0.2
		c-1.2,0.4-2.6,0.7-4,1.1c-3.4,1.1-6.3,2.3-8,4c-1.7,1.8-1.6,3.5,1.3,5.1c1.6,0.8,3.7,1.3,6,1.7c0.3,0,0.5,0.1,0.7,0.1
		c-0.3,0.2-0.6,0.4-0.9,0.5c-0.4,0.3-0.6,0.5,0,0.7c0.5,0.2,1.1,0.1,1.6,0c0.8-0.3,1.4-0.6,2.2-0.8c0.2-0.1,0.5-0.2,0.7-0.2
		c8.3,0.1,16-0.9,22.9-3c0.3-0.1,0.6-0.1,1,0c1.1,0.4,2.4,0.7,3.6,1c1.5,0.4,3.2,0.7,5,0.7c0.3,0,0.4-0.1,0.5-0.1
		C648.9,129.2,648.8,129.1,648.7,129.1z M627.2,111.1c11-2.7,3.9,4.3,2.5,6.2c-0.3,0.4-0.9,0.5-1.6,0.5c-0.2,0-0.4,0-0.7,0
		c-2.6-0.1-9.2,0.3-10.8-1.1C614.7,115.1,623.8,112.1,627.2,111.1z M615.1,129.1c-0.2,0.1-0.5,0.2-0.7,0.2c-4.9-0.4-8-2.9-5.8-4.9
		c1.5-1.4,4.1-2.4,7-3.2c3.4-1,7.1-1.6,11.2-1.8c0.2,0,0.3,0,0.4,0c0.1,0,0.1,0,0.3,0c-0.4,0.4-0.9,0.7-1.2,1.1
		C622.5,123.2,618.6,126.3,615.1,129.1z"/>
	<path class="st3" d="M748,114.7c-7.2,2.5-15,4.6-23.6,6.1c-2.9,0.5-5.8,1.1-8.9,1.5c-4.4,0.6-9,0.9-13.5,1.4
		c-1.3,0.2-2.6,0.2-4,0.3c1.6-1.7,3.2-3.5,5.1-5.3c2.4-2.3,4.6-4.6,6.7-6.9c0.2-0.3,0.6-0.4,1-0.5c3.4-0.7,6.8-1.2,10.4-1.7
		c0.6-0.1,1-0.2,1.4-0.4c0.3-0.2,0.2-0.3-0.2-0.3c0,0,0,0-0.1,0c0.1-0.1-0.1-0.1-0.4-0.2c-0.5-0.1-1.1-0.2-1.6-0.2l-6.5,0.6
		c-1.1,0.1-1.9,0.3-2.9,0.4c-0.2-0.1-0.3-0.2-0.5-0.2c-0.4-0.3-1.2-0.4-1.9-0.1c-0.4,0.2-1,0.4-1.3,0.6c-0.7,0.4-1.2,0.6-2.3,0.8
		c-2.9,0.6-5.7,1.1-8.3,1.8c-3.8,1-7.7,1.8-11.1,3c-2.4,0.8-4.9,1.6-7.2,2.5c-1.7,0.8-3,1.6-3.9,2.5c-1.2,1.3-0.5,2.6,1.7,3.5
		c0.4,0.3,1.1,0.4,1.8,0.6c0.9,0.3,1.7,0.5,2.8,0.6c2.6,0.4,5.3,0.6,8.1,0.7l2.8,0.1c-0.1,0-0.1,0.1-0.1,0.1
		c-0.8,0.9-1.9,1.8-2.6,2.8c-2.4,2.9-4.7,5.8-7,8.7c-0.8,0.8-1.1,1.6-1.6,2.4c-0.1,0.1,0.1,0.2,0.1,0.3c0.2,0,0.2-0.1,0.4-0.2
		c-0.1,0-0.1,0.1-0.1,0.1c-0.1,0.1,0.1,0.2,0.1,0.3c0.2,0,0.3-0.2,0.5-0.2c0-0.1,0.1-0.1,0.1-0.2c1.4-1.1,2.6-2.3,3.7-3.3
		c3.6-3.4,6.6-6.9,10.3-10.3c0.5-0.4,1-0.5,1.9-0.5c6.7-0.3,13.3-0.9,19.8-1.8c2.7-0.3,4.9-0.9,7.5-1.3c6.4-1.1,12.4-2.5,18.2-4.2
		c4.1-1.1,8-2.4,11.6-3.8c-0.1-0.8-0.1-1.7-0.2-2.5C752.3,113.2,750.2,114,748,114.7z M693.6,123.9c-0.2,0.2-0.3,0.3-0.9,0.3
		c-3.8,0-7.7-0.2-11.3-0.8c-0.7-0.1-1.4-0.3-2.1-0.5l-0.2-0.1c-0.8-0.4-1-1-0.6-1.5c0.4-0.8,1.4-1.4,2.6-1.9c2-1,4.3-1.7,6.7-2.4
		c5.4-1.8,11.2-3.2,17.4-4.4c0.2,0,0.2-0.1,0.4-0.1c-0.7,0.7-1.5,1.4-2.1,2C699.8,117.6,696.8,120.8,693.6,123.9z"/>
	<path class="st3" d="M727.4,100.9c-5.8,0.4-11.6,0.9-17.1,1.7l-12.7,1.8c-5,0.8-9.8,1.9-14.6,2.9c-3.5,0.7-7,1.6-10.1,2.6
		c-5.1,1.6-10,3.3-14.2,5.4c-1.1,0.5-2.2,1.2-3,1.9c-0.4,0.3-0.5,0.6-0.5,0.9c0,0.2,0.3,0.4,0.7,0.5c0.3,0.2,0.6,0.3,1,0.3
		c0.5,0,0.9-0.1,1.2-0.4l1.1-0.8c2.4-1.4,5.1-2.5,8.1-3.7c3.3-1.2,6.7-2.5,10.5-3.5c7.7-2.1,16.1-3.8,24.7-5.1
		c8.2-1.2,16.1-2.4,24.6-2.8c3.7-0.2,7.3-0.5,11-0.6c4.9-0.1,9.9,0,14.7,0.4c-0.1-0.6-0.2-1.2-0.4-1.8c-2.6-0.2-5.2-0.3-7.8-0.3
		C738.8,100.3,733.1,100.5,727.4,100.9z"/>
	<g>
		<path d="M563.8,81.7l-1.5,3.7c-0.1,0.3-0.3,0.5-0.7,0.5c-0.4,0-0.7-0.3-0.7-0.7c0-0.1,0-0.2,0.1-0.3l4.9-12.4
			c0.1-0.2,0.3-0.5,0.6-0.5c0.3,0,0.6,0.2,0.7,0.5l4.9,12.4c0,0.1,0.1,0.2,0.1,0.3c0,0.4-0.3,0.7-0.7,0.7c-0.3,0-0.6-0.2-0.7-0.5
			l-1.4-3.7H563.8z M566.6,74.4l-2.4,6.1h4.7L566.6,74.4z"/>
		<path d="M575.7,77.8v7.4c0,0.4-0.3,0.6-0.6,0.6c-0.4,0-0.6-0.3-0.6-0.6v-7.4h-0.7c-0.3,0-0.6-0.3-0.6-0.6c0-0.3,0.3-0.6,0.6-0.6
			h0.7v-1.2c0-1.8,1-3.4,3.5-3.4c0.3,0,0.6,0.3,0.6,0.6s-0.3,0.6-0.6,0.6c-1.6,0-2.2,0.9-2.2,2.2v1.2h4.1v-1.2c0-1.8,1-3.4,3.5-3.4
			c0.9,0,1.8,0.2,2.1,0.4c0.2,0.1,0.4,0.3,0.4,0.6c0,0.3-0.3,0.6-0.6,0.6c-0.1,0-0.3-0.1-0.4-0.1c-0.4-0.2-0.8-0.3-1.5-0.3
			c-1.6,0-2.2,0.9-2.2,2.2v1.2h4.5c0.4,0,0.6,0.3,0.6,0.6v8c0,0.4-0.3,0.6-0.6,0.6s-0.6-0.3-0.6-0.6v-7.4h-3.9v7.4
			c0,0.4-0.3,0.6-0.6,0.6s-0.6-0.3-0.6-0.6v-7.4H575.7z"/>
		<path d="M590.1,72.1v11.4c0,0.8,0.3,1.1,0.8,1.1c0.3,0,0.6,0.3,0.6,0.6s-0.3,0.6-0.6,0.6c-1.3,0-2.1-0.8-2.1-2.3V72.1
			c0-0.3,0.3-0.6,0.6-0.6C589.9,71.5,590.1,71.8,590.1,72.1z"/>
		<path d="M593.1,73.8c0-0.6,0.3-0.8,0.8-0.8s0.8,0.2,0.8,0.8c0,0.5-0.3,0.8-0.8,0.8S593.1,74.3,593.1,73.8z M594.5,85.2
			c0,0.4-0.3,0.6-0.6,0.6s-0.6-0.3-0.6-0.6v-8.1c0-0.4,0.3-0.6,0.6-0.6s0.6,0.3,0.6,0.6V85.2z"/>
		<path d="M598.1,78.6c-0.2,0.2-0.3,0.3-0.5,0.3c-0.3,0-0.6-0.3-0.6-0.6c0-0.1,0-0.2,0.1-0.3c0.6-0.9,1.6-1.6,3.3-1.6
			c2.3,0,3.6,1.4,3.6,3.4v5.5c0,0.3-0.3,0.6-0.6,0.6c-0.3,0-0.6-0.3-0.6-0.6v-0.7c-0.5,0.9-1.7,1.4-2.9,1.4c-2.1,0-3.5-1-3.5-2.9
			c0-1.8,1.3-2.8,3.5-2.8h2.8v-0.5c0-1.4-0.9-2.2-2.4-2.2C599.4,77.5,598.8,77.9,598.1,78.6z M602.8,82.3v-0.8H600
			c-1.3,0-2.2,0.5-2.2,1.7c0,1,0.7,1.7,2.3,1.7C601.5,84.8,602.8,84,602.8,82.3z"/>
		<path d="M607,74.5c0-0.3,0.3-0.6,0.6-0.6c0.4,0,0.6,0.3,0.6,0.6v2.1h1.3c0.3,0,0.6,0.3,0.6,0.6c0,0.3-0.3,0.6-0.6,0.6h-1.3v5.5
			c0,0.9,0.5,1.3,1.2,1.3c0.3,0,0.6,0.3,0.6,0.6s-0.3,0.6-0.6,0.6c-1.6,0-2.4-1.1-2.4-2.5v-5.5h-0.8c-0.3,0-0.6-0.3-0.6-0.6
			c0-0.3,0.3-0.6,0.6-0.6h0.8V74.5z"/>
		<path d="M615.6,76.3c3.2,0,3.8,2.5,3.8,3.9c0,0.6,0,1.3-0.8,1.3h-5.9c0,2,1.1,3.3,3,3.3c1.2,0,1.8-0.4,2.4-0.9
			c0.1-0.1,0.2-0.1,0.4-0.1c0.3,0,0.6,0.3,0.6,0.6c0,0.2-0.1,0.3-0.2,0.5c-0.3,0.3-1.3,1.1-3.1,1.1c-2.7,0-4.3-1.5-4.3-4.8
			C611.5,78.1,613,76.3,615.6,76.3z M615.6,77.5c-1.7,0-2.7,1.1-2.8,2.9h5.4C618.1,79,617.6,77.5,615.6,77.5z"/>
		<path d="M622.5,78.8c0,2.1,5.3,1.3,5.3,4.5c0,1.8-1.5,2.6-3.4,2.6c-1.6,0-2.9-0.8-3.4-1.4c-0.1-0.1-0.1-0.2-0.1-0.4
			c0-0.3,0.3-0.6,0.6-0.6c0.1,0,0.3,0,0.4,0.2c0.6,0.6,1.4,1,2.5,1c1.1,0,2.1-0.4,2.1-1.4c0-2.1-5.3-1.2-5.3-4.5
			c0-1.7,1.4-2.4,3.1-2.4c1.4,0,2.4,0.5,3,1.3c0.1,0.1,0.1,0.2,0.1,0.4c0,0.3-0.3,0.6-0.6,0.6c-0.1,0-0.3,0-0.4-0.2
			c-0.5-0.5-1.1-0.8-2.2-0.8C623.3,77.6,622.5,77.9,622.5,78.8z"/>
		<path d="M635.7,78.6c-0.2,0.2-0.3,0.3-0.5,0.3c-0.3,0-0.6-0.3-0.6-0.6c0-0.1,0-0.2,0.1-0.3c0.6-0.9,1.6-1.6,3.3-1.6
			c2.3,0,3.6,1.4,3.6,3.4v5.5c0,0.3-0.3,0.6-0.6,0.6s-0.6-0.3-0.6-0.6v-0.7c-0.5,0.9-1.7,1.4-2.9,1.4c-2.1,0-3.5-1-3.5-2.9
			c0-1.8,1.3-2.8,3.5-2.8h2.8v-0.5c0-1.4-0.9-2.2-2.4-2.2C636.9,77.5,636.3,77.9,635.7,78.6z M640.4,82.3v-0.8h-2.8
			c-1.3,0-2.2,0.5-2.2,1.7c0,1,0.7,1.7,2.3,1.7C639,84.8,640.4,84,640.4,82.3z"/>
		<path d="M651.6,79.9v5.3c0,0.4-0.3,0.6-0.6,0.6c-0.4,0-0.6-0.3-0.6-0.6v-5.1c0-1.6-0.5-2.7-2.4-2.7c-2,0-2.7,1.2-2.7,2.8v4.9
			c0,0.4-0.3,0.6-0.6,0.6s-0.6-0.3-0.6-0.6v-8.1c0-0.4,0.3-0.6,0.6-0.6s0.6,0.3,0.6,0.6v0.6c0.4-0.8,1.4-1.4,2.7-1.4
			C651,76.3,651.6,78.2,651.6,79.9z"/>
		<path d="M660.2,77.6v-5.5c0-0.4,0.3-0.6,0.6-0.6c0.4,0,0.6,0.3,0.6,0.6V82c0,2.6-1.6,3.9-3.9,3.9c-2.6,0-4.1-1.5-4.1-4.8
			c0-3.3,1.4-4.8,4-4.8C658.7,76.3,659.7,77,660.2,77.6z M660.2,79.3c0,0-0.8-1.8-2.6-1.8c-1.8,0-2.8,1.2-2.8,3.6
			c0,2.5,1,3.7,2.8,3.7c1.5,0,2.6-0.9,2.6-2.8V79.3z"/>
		<path d="M670.5,85.2c0,0.4-0.3,0.7-0.7,0.7s-0.7-0.3-0.7-0.7V72.9c0-0.4,0.3-0.7,0.7-0.7h4c2.1,0,3.8,1.2,3.8,3.9
			c0,2.6-1.6,3.9-3.8,3.9h-3.3V85.2z M670.5,78.8h3.1c1.6,0,2.6-0.9,2.6-2.7c0-1.8-1-2.7-2.6-2.7h-3.1V78.8z"/>
		<path d="M680.4,78.6c-0.2,0.2-0.3,0.3-0.5,0.3c-0.3,0-0.6-0.3-0.6-0.6c0-0.1,0-0.2,0.1-0.3c0.6-0.9,1.6-1.6,3.3-1.6
			c2.3,0,3.6,1.4,3.6,3.4v5.5c0,0.3-0.3,0.6-0.6,0.6c-0.3,0-0.6-0.3-0.6-0.6v-0.7c-0.5,0.9-1.7,1.4-2.9,1.4c-2.1,0-3.5-1-3.5-2.9
			c0-1.8,1.3-2.8,3.5-2.8h2.8v-0.5c0-1.4-0.9-2.2-2.4-2.2C681.6,77.5,681,77.9,680.4,78.6z M685,82.3v-0.8h-2.8
			c-1.3,0-2.2,0.5-2.2,1.7c0,1,0.7,1.7,2.3,1.7C683.7,84.8,685,84,685,82.3z"/>
		<path d="M690,78c0.4-0.9,1.4-1.6,2.8-1.6c0.3,0,0.6,0.3,0.6,0.6s-0.3,0.6-0.6,0.6c-1.8,0-2.8,1.3-2.8,3.1v4.5
			c0,0.4-0.3,0.6-0.6,0.6c-0.4,0-0.6-0.3-0.6-0.6v-8.1c0-0.4,0.3-0.6,0.6-0.6c0.4,0,0.6,0.3,0.6,0.6V78z"/>
		<path d="M695.8,74.5c0-0.3,0.3-0.6,0.6-0.6c0.4,0,0.6,0.3,0.6,0.6v2.1h1.3c0.3,0,0.6,0.3,0.6,0.6c0,0.3-0.3,0.6-0.6,0.6h-1.3v5.5
			c0,0.9,0.5,1.3,1.2,1.3c0.3,0,0.6,0.3,0.6,0.6s-0.3,0.6-0.6,0.6c-1.6,0-2.4-1.1-2.4-2.5v-5.5H695c-0.3,0-0.6-0.3-0.6-0.6
			c0-0.3,0.3-0.6,0.6-0.6h0.8V74.5z"/>
		<path d="M708.5,79.9v5.3c0,0.4-0.3,0.6-0.6,0.6c-0.4,0-0.6-0.3-0.6-0.6v-5.1c0-1.6-0.5-2.7-2.4-2.7c-2,0-2.7,1.2-2.7,2.8v4.9
			c0,0.4-0.3,0.6-0.6,0.6c-0.4,0-0.6-0.3-0.6-0.6v-8.1c0-0.4,0.3-0.6,0.6-0.6c0.4,0,0.6,0.3,0.6,0.6v0.6c0.4-0.8,1.4-1.4,2.7-1.4
			C707.9,76.3,708.5,78.2,708.5,79.9z"/>
		<path d="M714.4,76.3c3.2,0,3.8,2.5,3.8,3.9c0,0.6,0,1.3-0.8,1.3h-5.8c0,2,1.1,3.3,3,3.3c1.2,0,1.8-0.4,2.4-0.9
			c0.1-0.1,0.2-0.1,0.4-0.1c0.3,0,0.6,0.3,0.6,0.6c0,0.2-0.1,0.3-0.2,0.5c-0.3,0.3-1.3,1.1-3.1,1.1c-2.7,0-4.3-1.5-4.3-4.8
			C710.3,78.1,711.8,76.3,714.4,76.3z M714.4,77.5c-1.7,0-2.7,1.1-2.8,2.9h5.4C717,79,716.5,77.5,714.4,77.5z"/>
		<path d="M721.5,78c0.4-0.9,1.4-1.6,2.8-1.6c0.3,0,0.6,0.3,0.6,0.6s-0.3,0.6-0.6,0.6c-1.8,0-2.8,1.3-2.8,3.1v4.5
			c0,0.4-0.3,0.6-0.6,0.6c-0.4,0-0.6-0.3-0.6-0.6v-8.1c0-0.4,0.3-0.6,0.6-0.6c0.4,0,0.6,0.3,0.6,0.6V78z"/>
		<path d="M727.4,78.8c0,2.1,5.3,1.3,5.3,4.5c0,1.8-1.5,2.6-3.4,2.6c-1.6,0-2.9-0.8-3.4-1.4c-0.1-0.1-0.1-0.2-0.1-0.4
			c0-0.3,0.3-0.6,0.6-0.6c0.1,0,0.3,0,0.4,0.2c0.6,0.6,1.4,1,2.5,1c1.1,0,2.1-0.4,2.1-1.4c0-2.1-5.3-1.2-5.3-4.5
			c0-1.7,1.4-2.4,3.1-2.4c1.4,0,2.4,0.5,3,1.3c0.1,0.1,0.1,0.2,0.1,0.4c0,0.3-0.3,0.6-0.6,0.6c-0.1,0-0.3,0-0.4-0.2
			c-0.5-0.5-1.1-0.8-2.2-0.8C728.3,77.6,727.4,77.9,727.4,78.8z"/>
		<path d="M623,164.1c-0.3,0-0.6-0.3-0.6-0.6c0-0.3,0.3-0.6,0.6-0.6h0.7v-1.2c0-1.8,1-3.4,3.5-3.4c0.3,0,0.6,0.3,0.6,0.6
			c0,0.3-0.3,0.6-0.6,0.6c-1.6,0-2.2,0.9-2.2,2.2v1.2h1.8c0.3,0,0.6,0.3,0.6,0.6c0,0.3-0.3,0.6-0.6,0.6H625v7.4
			c0,0.4-0.3,0.6-0.6,0.6s-0.6-0.3-0.6-0.6v-7.4H623z"/>
		<path d="M636.8,167.5c0,3.3-1.6,4.8-4.2,4.8c-2.6,0-4.2-1.5-4.2-4.8c0-3.3,1.6-4.8,4.2-4.8C635.2,162.7,636.8,164.2,636.8,167.5z
			 M635.5,167.5c0-2.5-1.1-3.6-2.9-3.6c-1.8,0-2.9,1.1-2.9,3.6c0,2.6,1.1,3.7,2.9,3.7C634.4,171.1,635.5,170,635.5,167.5z"/>
		<path d="M640.1,164.3c0.4-0.9,1.4-1.6,2.8-1.6c0.3,0,0.6,0.3,0.6,0.6c0,0.3-0.3,0.6-0.6,0.6c-1.8,0-2.8,1.3-2.8,3.1v4.5
			c0,0.4-0.3,0.6-0.6,0.6s-0.6-0.3-0.6-0.6v-8.1c0-0.4,0.3-0.6,0.6-0.6s0.6,0.3,0.6,0.6V164.3z"/>
		<path d="M649.3,165.3c0-4.7,2.4-7,6.2-7c1.9,0,3.6,0.8,4.5,2.1c0.1,0.1,0.1,0.3,0.1,0.4c0,0.4-0.3,0.6-0.6,0.6
			c-0.2,0-0.4-0.1-0.5-0.3c-0.7-0.9-2-1.7-3.5-1.7c-3.1,0-4.8,1.9-4.8,5.8c0,4.2,1.8,5.8,4.8,5.8c1.3,0,2.7-0.5,3.5-1.6
			c0.1-0.2,0.4-0.3,0.5-0.3c0.4,0,0.6,0.3,0.6,0.6c0,0.2,0,0.3-0.1,0.4c-0.9,1.3-2.7,2.1-4.5,2.1
			C651.7,172.3,649.3,170.2,649.3,165.3z"/>
		<path d="M664.1,171.5c0,0.4-0.3,0.7-0.7,0.7s-0.7-0.3-0.7-0.7v-12.3c0-0.4,0.3-0.7,0.7-0.7h4c2.1,0,3.8,1.2,3.8,3.9
			c0,2.6-1.6,3.9-3.8,3.9h-3.3V171.5z M664.1,165.1h3.1c1.6,0,2.6-0.9,2.6-2.7c0-1.8-1-2.7-2.6-2.7h-3.1V165.1z"/>
	</g>
</g>
</svg>
