<?xml version="1.0" encoding="utf-8"?>
<!-- Generator: Adobe Illustrator 21.0.0, SVG Export Plug-In . SVG Version: 6.00 Build 0)  -->
<svg version="1.1" id="Livello_1" xmlns="http://www.w3.org/2000/svg" xmlns:xlink="http://www.w3.org/1999/xlink" x="0px" y="0px"
	 viewBox="0 0 256 256" style="enable-background:new 0 0 256 256;" xml:space="preserve">
<style type="text/css">
	.st0{fill:none;}
	.st1{fill:#FD0000;}
	.st2{fill:#FFBB26;}
	.st3{fill:#FFFFFF;}
</style>
<g>
	<path class="st0" d="M118.9,121.1l1.7-1.2C120.1,119.9,119.6,120.4,118.9,121.1z"/>
	<path class="st1" d="M62.7,120.1l-3.4-2.7C60.2,118.5,61.4,119.5,62.7,120.1z"/>
	<path class="st2" d="M9.7,132.9c0,0.6,0,1.2,0.1,1.8c1-0.6,1.8-1.2,2.8-1.9C11.5,132.8,10.6,132.8,9.7,132.9z"/>
	<path class="st2" d="M20.9,130.5c0.4,0,0.6,0,0.9,0c2.3-0.1,4.7-0.2,6.9-0.3c6.8-0.1,13.6-0.1,20.4-0.2c0.5,0,0.8,0,0.9-0.3
		c2.2-3.1,4.4-6.2,6.4-9.3c1.4-2.2,2.9-4.4,4.3-6.6c1.1-1.8,2.2-3.6,3.2-5.4c0-0.1,0.1-0.2,0.1-0.4c-0.1,0-0.2,0-0.3,0
		c-15.6,7.1-29.8,14.6-43,22.4C20.8,130.5,20.8,130.5,20.9,130.5z"/>
	<path class="st2" d="M106.4,121.7c0.4,0,0.6,0,0.8,0c0.8,0,1.5-0.1,1.8-0.5c1.5-2.1,9.3-9.7-2.7-6.8c-3.7,1.2-13.8,4.4-11.8,6.1
		C96.3,122.1,103.6,121.6,106.4,121.7z"/>
	<path class="st2" d="M106.5,123.5c-0.2,0-0.2,0-0.3,0c-0.1,0-0.2,0-0.4,0c-4.5,0.2-8.5,0.8-12.3,1.9c-3.2,0.9-6.1,2-7.7,3.5
		c-2.4,2.2,0.9,5,6.4,5.4c0.2,0,0.6-0.1,0.8-0.2c3.9-3,8.2-6.4,12.2-9.4C105.6,124.3,106,124,106.5,123.5z"/>
	<path class="st2" d="M189.8,118.1c0.6-0.7,1.5-1.4,2.3-2.2c-0.1,0-0.2,0-0.4,0.1c-6.8,1.4-13.2,2.9-19.1,4.9
		c-2.7,0.8-5.2,1.6-7.4,2.6c-1.3,0.6-2.4,1.3-2.8,2.1c-0.4,0.6-0.2,1.2,0.7,1.7l0.2,0.1c0.8,0.2,1.6,0.4,2.3,0.6
		c4,0.6,8.3,0.8,12.5,0.8c0.7,0,0.8-0.1,1-0.3C182.7,125,186,121.6,189.8,118.1z"/>
	<path class="st2" d="M213.4,127.3c-2.8,0.5-5.2,1.1-8.2,1.4c-7.1,0.9-14.3,1.6-21.7,1.9c-1.1,0-1.6,0.2-2.1,0.6
		c-4.1,3.7-7.4,7.5-11.3,11.3c-1.2,1.2-2.6,2.5-4.1,3.7c0,0.1-0.1,0.1-0.1,0.2c-0.2,0-0.3,0.2-0.6,0.2c0-0.1-0.2-0.2-0.1-0.3
		c0,0,0-0.1,0.1-0.1c-0.2,0.1-0.3,0.2-0.5,0.2c0-0.1-0.1-0.2-0.1-0.3c0.5-0.9,0.9-1.8,1.7-2.7c2.5-3.2,5.1-6.4,7.7-9.6
		c0.8-1.1,2-2,2.9-3c0,0,0,0,0.1-0.1l-3-0.1c-3.1-0.1-6-0.3-8.9-0.8c-1.2-0.2-2.1-0.4-3-0.7c-0.7-0.2-1.4-0.4-1.9-0.7
		c-2.5-1-3.2-2.4-1.9-3.9c0.9-1,2.4-1.9,4.3-2.8c2.4-1.1,5.2-1.9,7.9-2.8c3.7-1.3,7.9-2.2,12.1-3.3c2.9-0.7,6-1.3,9.1-1.9
		c1.2-0.2,1.8-0.5,2.5-0.8c0.3-0.3,0.9-0.5,1.4-0.7c0.8-0.2,1.6-0.2,2.1,0.1c0.2,0,0.4,0.1,0.6,0.2c1.1-0.1,2-0.3,3.2-0.4l7.1-0.6
		c0.6,0,1.2,0.1,1.8,0.2c0.2,0,0.5,0.1,0.4,0.2c0.1,0,0.1,0,0.1,0c0.5,0,0.5,0.2,0.2,0.4c-0.5,0.2-0.9,0.4-1.6,0.5
		c-3.9,0.5-7.6,1.1-11.4,1.9c-0.5,0.1-0.9,0.2-1.1,0.5c-2.3,2.5-4.7,5-7.4,7.6c-2,1.9-3.8,3.9-5.6,5.8c1.5-0.1,2.9-0.1,4.4-0.3
		c5-0.5,10-0.9,14.8-1.5c3.4-0.4,6.5-1.1,9.8-1.7c9.4-1.7,18-4,25.9-6.7c2.5-0.8,4.8-1.7,6.9-2.7c-0.4-3.7-0.9-7.3-1.6-10.8
		c-5.3-0.4-10.8-0.5-16.2-0.4c-4.1,0-8.1,0.4-12.1,0.6c-9.4,0.5-18.1,1.8-27.1,3.1c-9.5,1.4-18.6,3.3-27.1,5.6
		c-4.1,1.1-7.9,2.5-11.5,3.8c-3.3,1.2-6.2,2.5-8.9,4l-1.3,0.9c-0.4,0.3-0.8,0.5-1.4,0.5c-0.5,0-0.8-0.1-1.1-0.3
		c-0.5-0.1-0.8-0.3-0.8-0.5c0.1-0.4,0.2-0.7,0.6-1c0.9-0.7,2.1-1.5,3.3-2.1c4.6-2.3,10-4.2,15.6-6c3.5-1.1,7.3-2.1,11.1-2.9
		c5.3-1.2,10.5-2.3,16-3.2l14-2c6.1-0.9,12.5-1.4,18.8-1.9c6.3-0.5,12.5-0.6,18.8-0.6c2.9,0,5.8,0.1,8.6,0.3
		C232.3,49.6,184.8,9.6,128,9.6C62.6,9.6,9.6,62.6,9.6,128c0,1.1,0,2.1,0,3.1c1.8-0.1,3.5-0.2,5.3-0.4c0.2,0,0.6-0.1,0.8-0.2
		c3.2-1.9,6.4-3.9,9.5-5.7c3.5-2,7.3-3.9,11-5.8c4.6-2.3,8.9-4.6,13.4-7c1.3-0.7,2.9-1.3,4.5-2c3.5-1.6,6.9-3.3,10.5-4.9
		c0.3-0.1,0.5-0.2,0.8-0.4c1.1-0.3,2.1-0.6,3.2-0.4c1.3,0.2,1.7,0.7,1.5,1.2c0,0.5-0.1,1-0.5,1.5c-0.8,1.8-1.8,3.5-2.8,5.2
		c-3.6,5.7-7.6,11.3-11.3,16.9c-0.2,0.4-0.5,0.7-0.7,1c1,0,1.9,0.1,2.9,0.1c3.1,0.1,6.4,0.2,9.7,0.3c0.2,0,0.4,0.1,0.5,0.1
		c-0.1,0-0.4,0.1-0.6,0.1c-4.2,0.1-8.3,0.2-12.4,0.3c-0.6,0-0.9,0.1-1,0.3c-2.1,3.1-4.1,6.1-6.2,9.2c-2.5,3.6-5,7.2-7.4,10.7
		c-1.6,2.5-2.8,5-4.4,7.5c-0.5,0.7-0.8,1.4-1.3,2c-0.2,0.2-0.6,0.4-0.9,0.6c-0.3-0.2-0.7-0.3-0.7-0.6c0-0.8,0.1-1.7,0.4-2.5
		c0.7-3.2,2.2-6.3,3.9-9.4c3.2-5.5,7.4-10.9,11.1-16.5c0.2-0.4,0.6-0.8,0.8-1.3c-2.1,0.1-4.1,0.2-6.2,0.2c-5,0.2-9.8,0.4-14.7,0.6
		c-3.5,0.1-6.8,0.3-10.2,0.5c-0.4,0-0.7,0.1-1,0.3c-1.6,1.2-3.1,2.3-4.7,3.4c-0.8,0.5-1.6,1-2.3,1.6c4.9,60.9,55.9,108.7,118,108.7
		c65.4,0,118.4-53,118.4-118.4c0-3.2-0.1-6.4-0.4-9.5c-3.9,1.6-8.2,3-12.7,4.2C226.9,124.5,220.4,126.1,213.4,127.3z M129.5,134.5
		c-2,0-3.8-0.3-5.5-0.7c-1.3-0.3-2.7-0.7-3.9-1c-0.4-0.1-0.7-0.1-1.1,0c-7.6,2.3-16,3.4-25.1,3.3c-0.2,0-0.6,0.1-0.8,0.2
		c-0.9,0.3-1.6,0.6-2.5,0.9c-0.5,0.1-1.2,0.2-1.7,0c-0.6-0.2-0.4-0.5,0-0.8c0.3-0.2,0.6-0.4,0.9-0.6c-0.2,0-0.5-0.1-0.8-0.1
		c-2.5-0.4-4.9-0.9-6.6-1.8c-3.2-1.8-3.3-3.6-1.4-5.6c1.9-1.9,5-3.3,8.8-4.4c1.5-0.4,3-0.8,4.3-1.2c-0.2,0-0.4-0.1-0.6-0.2
		c-2.9-0.8-4.2-2.1-3.3-3.5c0.6-0.9,1.5-1.8,3.1-2.5c2.6-1.3,5.4-2.5,8.7-3.4c3-0.8,6-1.3,9.5-1c10.2,1.3,4.1,6.5,1.7,9.2
		c-2.2,2.7-5.7,5-9,7.5c-2.2,1.6-5.5,3.6-7.9,5.3c-0.1,0.1-0.3,0.2-0.6,0.3c7.3-0.2,14.5-1.7,20.9-3c-0.3-0.2-0.5-0.3-0.6-0.4
		c-1.5-0.8-2.2-1.6-2.8-2.6c-0.2-0.4-0.1-0.6,0.3-0.9c0.5-0.3,1.1-0.5,2-0.4c0.8,0,1.2,0.3,1.6,0.6c0.8,0.9,1.9,1.8,3.5,2.6
		c1-0.4,2.2-0.8,3.4-1.1c1.6-0.6,3.2-1.2,4.8-1.8c0.2-0.1,0.6-0.1,0.9-0.1c-0.1,0.1-0.1,0.2-0.2,0.4c-1.6,1.4-4.1,2.5-6.7,3.6
		c-0.1,0-0.2,0.1-0.4,0.2c0.8,0.3,1.6,0.7,2.5,1c1.5,0.6,3.1,1.2,4.6,1.7c0.1,0,0.2,0.1,0.3,0.2C130,134.5,129.8,134.5,129.5,134.5z
		"/>
	<path class="st3" d="M17,132.8c0.3-0.1,0.6-0.3,1-0.3c3.4-0.2,6.8-0.4,10.2-0.5c5-0.2,9.8-0.4,14.7-0.6c2.1,0,4-0.1,6.2-0.2
		c-0.2,0.5-0.6,0.9-0.8,1.3c-3.7,5.6-7.9,10.9-11.1,16.5c-1.7,3.1-3.2,6.3-3.9,9.4c-0.3,0.8-0.4,1.6-0.4,2.5c0,0.2,0.4,0.4,0.7,0.6
		c0.3-0.2,0.7-0.4,0.9-0.6c0.4-0.7,0.8-1.4,1.3-2c1.6-2.5,2.8-5,4.4-7.5c2.4-3.5,4.9-7.1,7.4-10.7c2.1-3.1,4.2-6.1,6.2-9.2
		c0.1-0.2,0.4-0.3,1-0.3c4.2-0.1,8.2-0.2,12.4-0.3c0.2,0,0.5-0.1,0.6-0.1c-0.1,0-0.3-0.1-0.5-0.1c-3.4-0.1-6.6-0.2-9.7-0.3
		c-1,0-1.9-0.1-2.9-0.1c0.2-0.3,0.5-0.7,0.7-1c3.7-5.6,7.7-11.2,11.3-16.9c1.1-1.7,2-3.5,2.8-5.2c0.3-0.5,0.5-0.9,0.5-1.5
		c0.2-0.5-0.2-1-1.5-1.2c-1.1-0.2-2.1,0.1-3.2,0.4c-0.3,0.1-0.5,0.2-0.8,0.4c-3.5,1.6-7,3.3-10.5,4.9c-1.6,0.7-3.1,1.4-4.5,2
		c-4.5,2.4-8.8,4.7-13.4,7c-3.6,1.9-7.4,3.9-11,5.8c-3.2,1.9-6.3,3.8-9.5,5.7c-0.2,0.1-0.6,0.2-0.8,0.2c-1.8,0.1-3.5,0.2-5.3,0.4
		c0,0.6,0,1.2,0.1,1.7c0.9-0.1,1.8-0.1,2.9-0.2c-1,0.7-1.8,1.3-2.8,1.9c0.1,1,0.1,2,0.2,3.1c0.7-0.5,1.5-1,2.3-1.6
		C13.9,135.1,15.4,133.9,17,132.8z M63.8,108c0.1,0,0.2,0,0.3,0c0,0.1-0.1,0.2-0.1,0.4c-1.1,1.8-2.1,3.6-3.2,5.4
		c-1.4,2.2-2.8,4.4-4.3,6.6c-2.1,3.1-4.2,6.2-6.4,9.3c0,0.2-0.4,0.3-0.9,0.3c-6.8,0.1-13.6,0.2-20.4,0.2c-2.3,0.1-4.7,0.2-6.9,0.3
		c-0.4,0-0.6,0-0.9,0c-0.1,0-0.1,0-0.1-0.1C34,122.6,48.2,115.1,63.8,108z"/>
	<path class="st3" d="M129.8,134.2c-1.5-0.6-3.1-1.1-4.6-1.7c-0.8-0.3-1.6-0.7-2.5-1c0.2-0.1,0.2-0.1,0.4-0.2c2.5-1.1,5-2.2,6.7-3.6
		c0.1-0.1,0.1-0.2,0.2-0.4c-0.2,0-0.7,0.1-0.9,0.1c-1.6,0.6-3.2,1.2-4.8,1.8c-1.2,0.3-2.4,0.7-3.4,1.1c-1.6-0.8-2.7-1.7-3.5-2.6
		c-0.5-0.3-0.8-0.6-1.6-0.6c-0.9-0.1-1.5,0.1-2,0.4c-0.4,0.3-0.6,0.6-0.3,0.9c0.6,0.9,1.4,1.8,2.8,2.6c0.2,0.1,0.4,0.2,0.6,0.4
		c-6.4,1.3-13.5,2.8-20.9,3c0.2-0.2,0.4-0.3,0.6-0.3c2.4-1.6,5.7-3.6,7.9-5.3c3.3-2.4,6.8-4.8,9-7.5c2.4-2.7,8.5-7.9-1.7-9.2
		c-3.5-0.3-6.5,0.3-9.5,1c-3.3,0.9-6.1,2.1-8.7,3.4c-1.6,0.7-2.5,1.6-3.1,2.5c-0.9,1.4,0.3,2.7,3.3,3.5c0.2,0.1,0.5,0.1,0.6,0.2
		c-1.4,0.4-2.8,0.8-4.3,1.2c-3.8,1.2-6.9,2.6-8.8,4.4c-1.8,2-1.8,3.8,1.4,5.6c1.7,0.9,4.1,1.5,6.6,1.8c0.3,0,0.6,0.1,0.8,0.1
		c-0.3,0.2-0.6,0.4-0.9,0.6c-0.4,0.3-0.6,0.6,0,0.8c0.6,0.2,1.2,0.1,1.7,0c0.9-0.3,1.6-0.6,2.5-0.9c0.2-0.1,0.6-0.2,0.8-0.2
		c9.1,0.1,17.5-1,25.1-3.3c0.4-0.1,0.6-0.1,1.1,0c1.3,0.4,2.6,0.7,3.9,1c1.7,0.4,3.5,0.7,5.5,0.7c0.3,0,0.5-0.1,0.6-0.1
		C130,134.3,130,134.2,129.8,134.2z M106.3,114.4c12-2.9,4.2,4.7,2.7,6.8c-0.3,0.4-0.9,0.6-1.8,0.5c-0.2,0-0.4,0-0.8,0
		c-2.8-0.1-10.2,0.4-11.9-1.2C92.5,118.8,102.6,115.6,106.3,114.4z M92.9,134.1c-0.2,0.1-0.6,0.2-0.8,0.2c-5.4-0.4-8.8-3.1-6.4-5.4
		c1.6-1.5,4.5-2.6,7.7-3.5c3.8-1.1,7.8-1.7,12.3-1.9c0.2,0,0.3,0,0.4,0c0.1,0,0.1,0,0.3,0c-0.5,0.4-0.9,0.8-1.4,1.2
		C101.1,127.7,96.8,131.2,92.9,134.1z"/>
	<path class="st3" d="M238.9,118.4c-7.9,2.8-16.5,5-25.9,6.7c-3.2,0.6-6.4,1.3-9.8,1.7c-4.8,0.6-9.8,1-14.8,1.5
		c-1.5,0.2-2.9,0.2-4.4,0.3c1.7-1.9,3.5-3.9,5.6-5.8c2.6-2.5,5-5,7.4-7.6c0.2-0.3,0.6-0.4,1.1-0.5c3.8-0.8,7.5-1.3,11.4-1.9
		c0.6-0.1,1.1-0.2,1.6-0.5c0.3-0.2,0.2-0.3-0.2-0.4c0,0,0,0-0.1,0c0.1-0.1-0.1-0.1-0.4-0.2c-0.6-0.1-1.2-0.2-1.8-0.2l-7.1,0.6
		c-1.2,0.1-2.1,0.3-3.2,0.4c-0.2-0.1-0.3-0.2-0.6-0.2c-0.5-0.4-1.3-0.4-2.1-0.1c-0.5,0.2-1.1,0.4-1.4,0.7c-0.7,0.4-1.4,0.7-2.5,0.8
		c-3.1,0.7-6.2,1.3-9.1,1.9c-4.2,1-8.4,2-12.1,3.3c-2.7,0.9-5.4,1.7-7.9,2.8c-1.9,0.8-3.3,1.8-4.3,2.8c-1.3,1.5-0.6,2.9,1.9,3.9
		c0.5,0.3,1.3,0.5,1.9,0.7c0.9,0.3,1.9,0.5,3,0.7c2.9,0.5,5.8,0.7,8.9,0.8l3,0.1c-0.1,0-0.1,0.1-0.1,0.1c-0.9,1-2.1,2-2.9,3
		c-2.6,3.2-5.2,6.4-7.7,9.6c-0.8,0.9-1.2,1.8-1.7,2.7c-0.1,0.1,0.1,0.2,0.1,0.3c0.2,0,0.2-0.1,0.5-0.2c-0.1,0-0.1,0.1-0.1,0.1
		c-0.1,0.1,0.1,0.2,0.1,0.3c0.2,0,0.3-0.2,0.6-0.2c0-0.1,0.1-0.1,0.1-0.2c1.5-1.2,2.9-2.5,4.1-3.7c4-3.8,7.2-7.6,11.3-11.3
		c0.6-0.4,1.1-0.6,2.1-0.6c7.4-0.3,14.6-1,21.7-1.9c2.9-0.4,5.4-0.9,8.2-1.4c7-1.2,13.6-2.8,20-4.6c4.5-1.2,8.8-2.6,12.7-4.2
		c-0.1-0.9-0.2-1.8-0.2-2.7C243.7,116.7,241.4,117.6,238.9,118.4z M179.2,128.5c-0.2,0.2-0.3,0.3-1,0.3c-4.2,0-8.5-0.2-12.5-0.8
		c-0.8-0.1-1.6-0.4-2.3-0.6l-0.2-0.1c-0.9-0.5-1.1-1.1-0.7-1.7c0.5-0.9,1.5-1.5,2.8-2.1c2.2-1,4.7-1.8,7.4-2.6
		c5.9-2,12.3-3.5,19.1-4.9c0.2,0,0.2-0.1,0.4-0.1c-0.8,0.8-1.6,1.5-2.3,2.2C186,121.6,182.7,125,179.2,128.5z"/>
	<path class="st3" d="M216.3,103.2c-6.4,0.5-12.7,1-18.8,1.9l-14,2c-5.5,0.9-10.7,2.1-16,3.2c-3.9,0.8-7.7,1.8-11.1,2.9
		c-5.6,1.8-11,3.6-15.6,6c-1.3,0.6-2.4,1.4-3.3,2.1c-0.4,0.3-0.5,0.6-0.6,1c0,0.2,0.3,0.4,0.8,0.5c0.3,0.2,0.6,0.3,1.1,0.3
		c0.6,0,0.9-0.1,1.4-0.5l1.3-0.9c2.7-1.5,5.6-2.8,8.9-4c3.6-1.3,7.4-2.7,11.5-3.8c8.5-2.3,17.6-4.2,27.1-5.6
		c9-1.3,17.6-2.6,27.1-3.1c4-0.2,8-0.6,12.1-0.6c5.4-0.1,10.9,0,16.2,0.4c-0.1-0.6-0.3-1.3-0.4-1.9c-2.8-0.2-5.7-0.3-8.6-0.3
		C228.8,102.6,222.6,102.7,216.3,103.2z"/>
	<g>
		<path d="M36.6,82.2l-1.6,4c-0.1,0.3-0.4,0.5-0.7,0.5c-0.4,0-0.7-0.4-0.7-0.7c0-0.1,0-0.2,0.1-0.3L39,72.1c0.1-0.3,0.3-0.5,0.7-0.5
			c0.4,0,0.6,0.2,0.7,0.5l5.4,13.6c0,0.1,0.1,0.3,0.1,0.3c0,0.4-0.3,0.7-0.8,0.7c-0.4,0-0.6-0.2-0.7-0.5l-1.6-4H36.6z M39.7,74.1
			l-2.6,6.7h5.2L39.7,74.1z"/>
		<path d="M49.7,77.9V86c0,0.4-0.3,0.7-0.7,0.7s-0.7-0.3-0.7-0.7v-8.1h-0.7c-0.4,0-0.7-0.3-0.7-0.7c0-0.4,0.3-0.7,0.7-0.7h0.7v-1.3
			c0-2,1.1-3.8,3.8-3.8c0.4,0,0.7,0.3,0.7,0.7s-0.3,0.7-0.7,0.7c-1.7,0-2.4,1-2.4,2.5v1.3h4.5v-1.3c0-2,1.1-3.8,3.8-3.8
			c1,0,1.9,0.3,2.3,0.5c0.3,0.2,0.4,0.4,0.4,0.6c0,0.4-0.3,0.7-0.7,0.7c-0.1,0-0.3-0.1-0.5-0.1c-0.5-0.2-0.9-0.3-1.6-0.3
			c-1.7,0-2.4,1-2.4,2.5v1.3h5c0.4,0,0.7,0.3,0.7,0.7V86c0,0.4-0.3,0.7-0.7,0.7s-0.7-0.3-0.7-0.7v-8.1h-4.3V86
			c0,0.4-0.3,0.7-0.7,0.7s-0.7-0.3-0.7-0.7v-8.1H49.7z"/>
		<path d="M65.6,71.6v12.6c0,0.9,0.3,1.3,0.9,1.3c0.4,0,0.7,0.3,0.7,0.7s-0.3,0.7-0.7,0.7c-1.5,0-2.3-0.9-2.3-2.6V71.6
			c0-0.4,0.3-0.7,0.7-0.7C65.2,70.9,65.6,71.2,65.6,71.6z"/>
		<path d="M68.8,73.5c0-0.6,0.3-0.9,0.8-0.9s0.8,0.2,0.8,0.9c0,0.5-0.3,0.8-0.8,0.8S68.8,74,68.8,73.5z M70.4,86
			c0,0.4-0.3,0.7-0.7,0.7s-0.7-0.3-0.7-0.7v-8.9c0-0.4,0.3-0.7,0.7-0.7s0.7,0.3,0.7,0.7V86z"/>
		<path d="M74.3,78.7C74.1,78.9,74,79,73.8,79c-0.4,0-0.6-0.3-0.6-0.6c0-0.2,0-0.3,0.1-0.4c0.6-1,1.8-1.7,3.7-1.7c2.6,0,4,1.5,4,3.7
			V86c0,0.4-0.3,0.7-0.7,0.7s-0.7-0.3-0.7-0.7v-0.8c-0.6,1-1.8,1.6-3.1,1.6c-2.3,0-3.8-1.1-3.8-3.1c0-1.9,1.5-3.1,3.9-3.1h3.1V80
			c0-1.5-1-2.4-2.6-2.4C75.7,77.6,75,77.9,74.3,78.7z M79.5,82.7v-0.9h-3.1c-1.4,0-2.4,0.6-2.4,1.9c0,1.1,0.8,1.9,2.5,1.9
			C78,85.6,79.5,84.6,79.5,82.7z"/>
		<path d="M84,74.2c0-0.4,0.3-0.7,0.7-0.7c0.4,0,0.7,0.3,0.7,0.7v2.3h1.4c0.4,0,0.7,0.3,0.7,0.7c0,0.4-0.3,0.7-0.7,0.7h-1.4V84
			c0,0.9,0.5,1.5,1.3,1.5c0.4,0,0.7,0.3,0.7,0.7s-0.3,0.7-0.7,0.7C85,86.7,84,85.6,84,84v-6.1h-0.9c-0.4,0-0.7-0.3-0.7-0.7
			c0-0.4,0.3-0.7,0.7-0.7H84V74.2z"/>
		<path d="M93.5,76.3c3.5,0,4.2,2.8,4.2,4.3c0,0.6,0,1.4-0.9,1.4h-6.4c0,2.2,1.3,3.6,3.3,3.6c1.3,0,2-0.5,2.6-0.9
			c0.1-0.1,0.2-0.1,0.4-0.1c0.4,0,0.6,0.3,0.6,0.6c0,0.2-0.1,0.4-0.2,0.5c-0.3,0.3-1.5,1.2-3.4,1.2c-2.9,0-4.8-1.6-4.8-5.3
			C89,78.1,90.6,76.3,93.5,76.3z M93.5,77.5c-1.9,0-3,1.2-3.1,3.2h5.9C96.3,79.1,95.8,77.5,93.5,77.5z"/>
		<path d="M101,78.9c0,2.3,5.8,1.5,5.8,5c0,2-1.7,2.9-3.7,2.9c-1.8,0-3.2-0.9-3.8-1.6c-0.1-0.2-0.2-0.3-0.2-0.4
			c0-0.4,0.3-0.6,0.6-0.6c0.1,0,0.3,0,0.5,0.2c0.7,0.7,1.6,1.1,2.8,1.1c1.3,0,2.3-0.4,2.3-1.6c0-2.3-5.8-1.4-5.8-5
			c0-1.8,1.5-2.7,3.4-2.7c1.5,0,2.7,0.5,3.3,1.4c0.1,0.1,0.2,0.2,0.2,0.4c0,0.4-0.3,0.6-0.6,0.6c-0.1,0-0.3,0-0.5-0.2
			c-0.6-0.6-1.3-0.9-2.4-0.9C102,77.6,101,77.9,101,78.9z"/>
		<path d="M115.6,78.7c-0.2,0.2-0.4,0.3-0.6,0.3c-0.4,0-0.6-0.3-0.6-0.6c0-0.2,0-0.3,0.1-0.4c0.6-1,1.8-1.7,3.7-1.7
			c2.6,0,4,1.5,4,3.7V86c0,0.4-0.3,0.7-0.7,0.7s-0.7-0.3-0.7-0.7v-0.8c-0.6,1-1.8,1.6-3.1,1.6c-2.3,0-3.8-1.1-3.8-3.1
			c0-1.9,1.5-3.1,3.9-3.1h3.1V80c0-1.5-1-2.4-2.6-2.4C116.9,77.6,116.2,77.9,115.6,78.7z M120.7,82.7v-0.9h-3.1
			c-1.4,0-2.4,0.6-2.4,1.9c0,1.1,0.8,1.9,2.5,1.9C119.2,85.6,120.7,84.6,120.7,82.7z"/>
		<path d="M133.1,80.1V86c0,0.4-0.3,0.7-0.7,0.7c-0.4,0-0.7-0.3-0.7-0.7v-5.6c0-1.7-0.5-2.9-2.6-2.9c-2.2,0-2.9,1.3-2.9,3.1V86
			c0,0.4-0.3,0.7-0.7,0.7s-0.7-0.3-0.7-0.7v-8.9c0-0.4,0.3-0.7,0.7-0.7s0.7,0.3,0.7,0.7v0.7c0.4-0.8,1.5-1.5,2.9-1.5
			C132.4,76.3,133.1,78.3,133.1,80.1z"/>
		<path d="M142.5,77.7v-6.1c0-0.4,0.3-0.7,0.7-0.7c0.4,0,0.7,0.3,0.7,0.7v10.9c0,2.9-1.8,4.3-4.3,4.3c-2.8,0-4.5-1.7-4.5-5.3
			c0-3.6,1.6-5.3,4.4-5.3C140.9,76.3,142,77,142.5,77.7z M142.5,79.5c0,0-0.8-1.9-2.9-1.9c-2,0-3.1,1.3-3.1,4c0,2.8,1.1,4,3.1,4
			c1.7,0,2.9-1,2.9-3.1V79.5z"/>
		<path d="M153.8,86c0,0.4-0.3,0.7-0.7,0.7s-0.7-0.3-0.7-0.7V72.5c0-0.4,0.3-0.7,0.7-0.7h4.4c2.4,0,4.2,1.4,4.2,4.3
			c0,2.9-1.8,4.3-4.2,4.3h-3.6V86z M153.8,79h3.4c1.8,0,2.9-1,2.9-2.9c0-1.9-1.1-2.9-2.9-2.9h-3.4V79z"/>
		<path d="M164.6,78.7c-0.2,0.2-0.4,0.3-0.6,0.3c-0.4,0-0.6-0.3-0.6-0.6c0-0.2,0-0.3,0.1-0.4c0.6-1,1.8-1.7,3.7-1.7
			c2.6,0,4,1.5,4,3.7V86c0,0.4-0.3,0.7-0.7,0.7s-0.7-0.3-0.7-0.7v-0.8c-0.5,1-1.8,1.6-3.1,1.6c-2.3,0-3.8-1.1-3.8-3.1
			c0-1.9,1.5-3.1,3.9-3.1h3.1V80c0-1.5-1-2.4-2.6-2.4C166,77.6,165.3,77.9,164.6,78.7z M169.8,82.7v-0.9h-3.1
			c-1.4,0-2.4,0.6-2.4,1.9c0,1.1,0.8,1.9,2.5,1.9C168.3,85.6,169.8,84.6,169.8,82.7z"/>
		<path d="M175.2,78.1c0.4-1,1.5-1.8,3.1-1.8c0.4,0,0.7,0.3,0.7,0.7s-0.3,0.7-0.7,0.7c-2,0-3.1,1.4-3.1,3.4V86
			c0,0.4-0.3,0.7-0.7,0.7c-0.4,0-0.7-0.3-0.7-0.7v-8.9c0-0.4,0.3-0.7,0.7-0.7c0.4,0,0.7,0.3,0.7,0.7V78.1z"/>
		<path d="M181.6,74.2c0-0.4,0.3-0.7,0.7-0.7c0.4,0,0.7,0.3,0.7,0.7v2.3h1.4c0.4,0,0.7,0.3,0.7,0.7c0,0.4-0.3,0.7-0.7,0.7H183V84
			c0,0.9,0.5,1.5,1.3,1.5c0.4,0,0.7,0.3,0.7,0.7s-0.3,0.7-0.7,0.7c-1.7,0-2.7-1.2-2.7-2.8v-6.1h-0.9c-0.4,0-0.7-0.3-0.7-0.7
			c0-0.4,0.3-0.7,0.7-0.7h0.9V74.2z"/>
		<path d="M195.6,80.1V86c0,0.4-0.3,0.7-0.7,0.7c-0.4,0-0.7-0.3-0.7-0.7v-5.6c0-1.7-0.5-2.9-2.6-2.9c-2.2,0-2.9,1.3-2.9,3.1V86
			c0,0.4-0.3,0.7-0.7,0.7c-0.4,0-0.7-0.3-0.7-0.7v-8.9c0-0.4,0.3-0.7,0.7-0.7c0.4,0,0.7,0.3,0.7,0.7v0.7c0.4-0.8,1.5-1.5,2.9-1.5
			C194.9,76.3,195.6,78.3,195.6,80.1z"/>
		<path d="M202.1,76.3c3.5,0,4.2,2.8,4.2,4.3c0,0.6,0,1.4-0.9,1.4H199c0,2.2,1.3,3.6,3.3,3.6c1.3,0,2-0.5,2.6-0.9
			c0.1-0.1,0.2-0.1,0.4-0.1c0.4,0,0.6,0.3,0.6,0.6c0,0.2-0.1,0.4-0.2,0.5c-0.3,0.3-1.5,1.2-3.4,1.2c-2.9,0-4.8-1.6-4.8-5.3
			C197.5,78.1,199.2,76.3,202.1,76.3z M202.1,77.5c-1.9,0-3,1.2-3.1,3.2h5.9C204.9,79.1,204.3,77.5,202.1,77.5z"/>
		<path d="M209.9,78.1c0.4-1,1.5-1.8,3.1-1.8c0.4,0,0.7,0.3,0.7,0.7s-0.3,0.7-0.7,0.7c-2,0-3.1,1.4-3.1,3.4V86
			c0,0.4-0.3,0.7-0.7,0.7c-0.4,0-0.7-0.3-0.7-0.7v-8.9c0-0.4,0.3-0.7,0.7-0.7c0.4,0,0.7,0.3,0.7,0.7V78.1z"/>
		<path d="M216.3,78.9c0,2.3,5.8,1.5,5.8,5c0,2-1.7,2.9-3.7,2.9c-1.8,0-3.2-0.9-3.8-1.6c-0.1-0.2-0.2-0.3-0.2-0.4
			c0-0.4,0.3-0.6,0.6-0.6c0.1,0,0.3,0,0.5,0.2c0.7,0.7,1.6,1.1,2.8,1.1c1.3,0,2.3-0.4,2.3-1.6c0-2.3-5.8-1.4-5.8-5
			c0-1.8,1.5-2.7,3.4-2.7c1.5,0,2.7,0.5,3.3,1.4c0.1,0.1,0.2,0.2,0.2,0.4c0,0.4-0.3,0.6-0.6,0.6c-0.1,0-0.3,0-0.5-0.2
			c-0.6-0.6-1.3-0.9-2.4-0.9C217.3,77.6,216.3,77.9,216.3,78.9z"/>
		<path d="M101.7,172.7c-0.4,0-0.7-0.3-0.7-0.7s0.3-0.7,0.7-0.7h0.7v-1.3c0-2,1.1-3.8,3.8-3.8c0.4,0,0.7,0.3,0.7,0.7
			s-0.3,0.7-0.7,0.7c-1.7,0-2.4,1-2.4,2.5v1.3h2c0.4,0,0.7,0.3,0.7,0.7s-0.3,0.7-0.7,0.7h-2v8.1c0,0.4-0.3,0.7-0.7,0.7
			s-0.7-0.3-0.7-0.7v-8.1H101.7z"/>
		<path d="M116.8,176.3c0,3.6-1.8,5.3-4.6,5.3c-2.8,0-4.6-1.7-4.6-5.3s1.8-5.3,4.6-5.3C115,171.1,116.8,172.7,116.8,176.3z
			 M115.4,176.3c0-2.8-1.2-4-3.2-4c-2,0-3.2,1.2-3.2,4c0,2.8,1.2,4,3.2,4C114.2,180.4,115.4,179.1,115.4,176.3z"/>
		<path d="M120.4,172.9c0.4-1,1.5-1.8,3.1-1.8c0.4,0,0.7,0.3,0.7,0.7s-0.3,0.7-0.7,0.7c-2,0-3.1,1.4-3.1,3.4v4.9
			c0,0.4-0.3,0.7-0.7,0.7s-0.7-0.3-0.7-0.7v-8.9c0-0.4,0.3-0.7,0.7-0.7s0.7,0.3,0.7,0.7V172.9z"/>
		<path d="M130.6,174c0-5.2,2.6-7.7,6.9-7.7c2.1,0,3.9,0.9,5,2.3c0.1,0.2,0.2,0.3,0.2,0.5c0,0.4-0.3,0.7-0.7,0.7
			c-0.2,0-0.4-0.1-0.6-0.3c-0.7-1-2.2-1.8-3.8-1.8c-3.4,0-5.3,2-5.3,6.4c0,4.6,1.9,6.3,5.3,6.3c1.5,0,3-0.6,3.8-1.8
			c0.2-0.2,0.4-0.3,0.6-0.3c0.4,0,0.7,0.3,0.7,0.7c0,0.2,0,0.3-0.1,0.4c-1,1.4-2.9,2.3-5,2.3C133.2,181.7,130.6,179.4,130.6,174z"/>
		<path d="M146.7,180.8c0,0.4-0.3,0.7-0.7,0.7s-0.7-0.3-0.7-0.7v-13.5c0-0.4,0.3-0.7,0.7-0.7h4.4c2.4,0,4.2,1.4,4.2,4.3
			c0,2.9-1.8,4.3-4.2,4.3h-3.6V180.8z M146.7,173.8h3.4c1.8,0,2.9-1,2.9-2.9c0-1.9-1.1-2.9-2.9-2.9h-3.4V173.8z"/>
	</g>
</g>
</svg>
